ModelForces
version=1
nRows=5
nColumns=94
inDegrees=yes

This file contains the forces exerted on a model during a simulation.

A force is a generalized force, meaning that it can be either a force (N) or a torque (Nm).

Units are S.I. units (second, meters, Newtons, ...)
Angles are in degrees.

endheader 
time	addbrev_l	addlong_l	addmagDist_l	addmagIsch_l	addmagMid_l	addmagProx_l	bflh_l	bfsh_l	edl_l	ehl_l	fdl_l	fhl_l	gaslat_l	gasmed_l	glmax1_l	glmax2_l	glmax3_l	glmed1_l	glmed2_l	glmed3_l	glmin1_l	glmin2_l	glmin3_l	grac_l	iliacus_l	perbrev_l	perlong_l	piri_l	psoas_l	recfem_l	sart_l	semimem_l	semiten_l	soleus_l	tfl_l	tibant_l	tibpost_l	vasint_l	vaslat_l	vasmed_l	addbrev_r	addlong_r	addmagDist_r	addmagIsch_r	addmagMid_r	addmagProx_r	bflh_r	bfsh_r	edl_r	ehl_r	fdl_r	fhl_r	gaslat_r	gasmed_r	glmax1_r	glmax2_r	glmax3_r	glmed1_r	glmed2_r	glmed3_r	glmin1_r	glmin2_r	glmin3_r	grac_r	iliacus_r	perbrev_r	perlong_r	piri_r	psoas_r	recfem_r	sart_r	semimem_r	semiten_r	soleus_r	tfl_r	tibant_r	tibpost_r	vasint_r	vaslat_r	vasmed_r	lumbar_extension	lumbar_bending	lumbar_rotation	arm_flex_l	arm_add_l	arm_rot_l	arm_flex_r	arm_add_r	arm_rot_r	elbow_flex_l	elbow_flex_r	pro_sup_l	pro_sup_r	
          5.38000000	          8.07150867	         11.57739776	          4.49115055	          3.65830586	          4.98055313	          4.90596610	         59.36259846	          6.79468545	          7.26287940	          1.30763933	         33.37692055	         90.15502366	        139.14631448	        416.11627269	        526.31130515	        873.33743334	        124.32623423	        252.77914612	        353.40770338	        513.85285140	          5.38624944	        112.90917138	        182.16996567	          2.93515697	         13.21351424	          4.02319535	         10.53361972	        438.49880725	         16.19805185	        208.18624203	          2.10068601	        276.55004875	          8.29670786	       1304.28006517	         81.12856214	        143.12179223	        227.48387488	         43.55586669	        378.41172626	         96.53432017	          8.30135196	          3.43428818	          5.78760639	         15.27882544	          5.60621928	          5.44078150	         19.78147427	         58.03336736	        112.62120154	         28.94494077	          0.71163083	         23.70063365	         47.86825197	        113.58954842	         12.34717761	         20.18569168	          7.07633459	        378.59617052	         98.13194635	         13.84496571	         60.82045755	         21.29400346	          3.73278543	          3.02548281	         68.13923001	         30.92005434	        142.17577665	          2.23024097	          7.74735037	          0.05945845	         12.83160021	        107.58907084	         26.60095616	        120.24872056	          0.03854550	        271.85639076	         51.35374007	         49.34059917	        223.40466833	         73.78975646	         76.68531888	         78.55710441	         -8.66440200	        -37.71379975	        -76.89268574	        -43.20794593	         14.02183272	         98.56388645	         38.29568071	          6.55777066	         50.45673065	         -2.99214864	          1.28358177	
          5.39000000	          8.56699411	         12.58933458	          4.79374859	          3.83317481	          5.40773800	          5.19273267	         50.61405259	          1.43396386	          0.02120495	         16.48014286	         31.52135032	         80.46186863	          0.02941237	        522.45862930	        430.99112996	        728.01531346	        104.21528215	        207.55476340	        289.68625414	        416.97924127	          4.54787941	         92.28774046	        155.52469265	          2.96370908	          4.66154396	          4.90590295	          0.00894354	        386.54995884	          5.19232988	        220.69994093	         88.47183095	        228.68412476	          6.91049232	       1116.89383957	         95.96723630	          0.01368995	        197.25413011	         37.00036459	        316.32735122	         81.41354120	          8.29725469	        214.91189008	          5.53847792	         12.49652247	          5.54078285	          5.51437477	         15.93681590	         49.27167430	         80.51345822	         20.98300997	         25.98285536	         19.83925169	         42.36123306	        100.13596750	          9.93804574	         16.19229867	          6.47103766	        322.36247018	         80.31375944	         11.22334422	         54.00274625	         18.24362046	          3.07541674	          3.18500676	        145.58710495	         36.54113981	        117.24076080	          0.96513602	         95.71706653	        226.81795845	         10.98170875	         93.87435260	         22.27622994	        105.52155095	         49.93550755	        283.16188901	         54.71042664	         39.10695400	        177.50698925	         58.78080915	        -16.92642889	         95.11078937	         14.63811087	          9.11020962	        -95.11985821	        -69.50494280	        -29.65479179	        111.30454851	         68.11819591	         11.72418011	         31.94425220	         -4.02589178	          0.82891961	
          5.40000000	          9.30763935	         14.31356553	          5.08992596	          4.04575257	          5.94781928	          5.63458804	         42.27019873	        157.01543246	         83.86922762	         10.36275464	         23.75533814	         62.80422990	        248.15061051	        709.11857615	        328.04530119	        537.30802453	         84.19967517	        164.92399624	        217.11132069	        296.14399924	          4.72378942	         72.85440922	         96.27490538	          3.05761501	        287.91380155	          0.00541948	        120.80623546	        300.70624055	        390.42406730	        172.08735628	        183.31126907	        181.53546586	          5.61347657	       1377.83410080	        103.57340823	        284.82849212	        150.13553014	         31.18961489	        276.81425471	         69.27083209	        126.49591516	        369.94769570	          7.20757402	          9.87816197	          9.04267715	          7.15138179	         12.82838752	         42.81236117	         61.11577730	         15.62146736	         15.75597160	         16.55755284	         36.94650525	         87.11008219	          8.45960633	         13.65817828	          6.30395161	        274.34551641	         71.60313437	         10.22563984	         46.59562609	         16.63299275	          3.29346042	          3.16994677	         54.33557652	         34.24222628	        105.44120909	          1.63463286	         57.91816191	        306.88304739	          9.36355141	         79.64502621	         18.47035766	        104.28619133	          0.01358291	        257.42218885	         94.46069015	         30.99295422	        141.03021835	         46.81158079	        -87.27580816	         21.04079509	         -9.29843963	         44.37322506	       -108.69260721	        -89.00949686	        -62.88361210	        121.71153190	         91.59172704	        -19.97560543	         59.04071269	         -3.24094139	         -1.34776584	
          5.41000000	          7.17101339	          0.01496123	          5.28822425	          4.39054610	          5.83036922	          5.20474123	         36.08608455	        135.82564190	          0.01411416	         15.03599377	         20.10942377	         52.44038522	        303.54277112	        759.01234817	        286.37584159	        477.42835470	         75.68349933	        131.14125481	        176.54756544	        258.24808583	          3.66105291	         58.53752386	         75.27847129	          2.97330701	        586.56863312	        123.41699899	        231.64650656	        202.42463311	        889.51020307	        188.45377701	        148.92973347	        136.54309824	          4.70536957	       1356.96765285	         96.78581249	         37.30573934	        123.80842556	         25.94086760	        209.41544264	         52.90921939	        102.55348422	        443.83710830	          5.96037341	          8.13348895	          7.43851073	          6.99196504	         11.13421744	         29.96796188	         50.96499555	         12.42741305	         20.97431586	         12.17067241	         31.67641545	         72.52308539	          7.13234869	         11.52756431	          6.18253909	        260.57596846	         61.31060944	          8.83897358	         49.88496097	         13.92680627	          3.00382312	          2.86000639	        322.66777055	         42.15212292	        105.33487213	          2.26502460	        211.14398590	        350.90968586	          6.93195915	         71.25714777	         15.73595698	         99.37672061	         58.18577675	        219.78087988	        134.14000996	         24.53669334	        111.83403277	         37.25301958	       -140.14133917	        -10.77682136	        -52.43824570	         70.82067601	       -118.84874147	       -103.56272933	        -84.67630832	        130.96097189	        106.90424729	        -47.37425822	         81.72886944	         -1.62659424	          2.29020903	
          5.42000000	        188.48854185	        623.09592501	          6.34808521	          5.72364378	          8.79086591	         43.00307827	         42.03379058	         71.00744484	         99.89168988	          0.00245839	         17.65145796	         40.96484031	        219.64717870	        549.78771079	        256.85700506	        442.30568580	         67.02812554	        112.14376793	        158.87230242	        245.65949483	         19.41468878	         50.12440797	         69.87195816	          2.35576907	        270.38331290	        107.03839643	        250.14116135	        168.85845889	        443.60648807	        220.99729347	        121.61314075	        120.01778223	          4.00443214	        858.81458440	         77.57870926	        277.17174671	        104.48080381	         44.35632819	        310.24750656	        113.27615189	         82.78443082	        354.48532868	          4.96200530	          6.71165842	          6.03785940	          8.27031151	          8.88653820	         65.62628194	         47.84576092	         11.90006951	         15.94823290	         23.80404854	         20.29597849	         55.95418623	          6.10685431	          9.58321649	          6.00265670	        189.46262055	         52.20276548	          7.38723435	        127.28389857	         20.11927186	          2.67743742	          4.92883852	        336.95958957	         42.48126977	        105.75572306	          2.05196135	        218.93222296	        337.11077342	         40.00236120	         62.39876163	         13.11058148	         88.66793514	         76.57261991	        193.66465499	        105.60193288	         20.13493480	         91.84234023	         30.59118336	       -177.12893312	         65.27955644	          6.37925031	         16.08212767	       -126.42767874	        -77.44964334	        -96.30704558	        137.90891430	         38.96548997	        -52.55981126	         98.83869141	         -1.84403942	         -3.90308174	
